<svg width="22" height="17" viewBox="0 0 22 17" fill="none" xmlns="http://www.w3.org/2000/svg">
<path d="M21.3795 4.00893C21.3795 3.67411 21.2455 3.33928 21.0045 3.09821L19.183 1.27678C18.942 1.03571 18.6071 0.901785 18.2723 0.901785C17.9375 0.901785 17.6027 1.03571 17.3616 1.27678L8.57589 10.0759L4.63839 6.125C4.39732 5.88393 4.0625 5.75 3.72768 5.75C3.39286 5.75 3.05804 5.88393 2.81696 6.125L0.995536 7.94643C0.754464 8.1875 0.620536 8.52232 0.620536 8.85714C0.620536 9.19196 0.754464 9.52679 0.995536 9.76786L5.84375 14.6161L7.66518 16.4375C7.90625 16.6786 8.24107 16.8125 8.57589 16.8125C8.91071 16.8125 9.24554 16.6786 9.48661 16.4375L11.308 14.6161L21.0045 4.91964C21.2455 4.67857 21.3795 4.34375 21.3795 4.00893Z" fill="#2ECC71"/>
</svg>
