<svg width="138" height="18" viewBox="0 0 138 18" fill="none" xmlns="http://www.w3.org/2000/svg">
<path d="M12.706 5.714C15.1407 5.714 16.358 7.13667 16.358 9.982V17H15.016V10.07C15.016 8.95533 14.818 8.14867 14.422 7.65C14.026 7.13667 13.3953 6.88 12.53 6.88C11.518 6.88 10.7187 7.21733 10.132 7.892C9.56 8.56667 9.274 9.48333 9.274 10.642V17H7.932V10.07C7.932 8.95533 7.72667 8.14867 7.316 7.65C6.92 7.13667 6.28933 6.88 5.424 6.88C4.42667 6.88 3.62733 7.21733 3.026 7.892C2.43933 8.56667 2.146 9.48333 2.146 10.642V17H0.826V9.036C0.826 7.892 0.767333 6.87267 0.65 5.978H1.926L2.102 7.958C2.41 7.22467 2.86467 6.66733 3.466 6.286C4.082 5.90467 4.79333 5.714 5.6 5.714C7.37467 5.714 8.51133 6.43267 9.01 7.87C9.318 7.19533 9.79467 6.66733 10.44 6.286C11.1 5.90467 11.8553 5.714 12.706 5.714ZM19.9471 5.978H21.2671V17H19.9471V5.978ZM21.5311 1.424V3.14H19.7491V1.424H21.5311ZM32.345 17L26.273 11.632V17H24.953V0.807999H26.273V11.104L31.817 5.978H33.555L27.791 11.28L34.171 17H32.345ZM45.0451 5.978V17H43.7031V14.888C43.3805 15.6213 42.8891 16.186 42.2291 16.582C41.5838 16.9633 40.8065 17.154 39.8971 17.154C38.9145 17.154 38.0491 16.9267 37.3011 16.472C36.5678 16.0027 35.9958 15.3427 35.5851 14.492C35.1891 13.6267 34.9911 12.622 34.9911 11.478C34.9911 10.334 35.1965 9.32933 35.6071 8.464C36.0178 7.584 36.5898 6.90933 37.3231 6.44C38.0711 5.956 38.9291 5.714 39.8971 5.714C40.7918 5.714 41.5618 5.90467 42.2071 6.286C42.8671 6.66733 43.3658 7.22467 43.7031 7.958V5.978H45.0451ZM40.0951 15.966C41.2391 15.966 42.1265 15.57 42.7571 14.778C43.3878 13.986 43.7031 12.8713 43.7031 11.434C43.7031 9.982 43.3878 8.86 42.7571 8.068C42.1265 7.276 41.2318 6.88 40.0731 6.88C38.9145 6.88 38.0125 7.29067 37.3671 8.112C36.7218 8.91867 36.3991 10.0407 36.3991 11.478C36.3991 12.9007 36.7218 14.008 37.3671 14.8C38.0125 15.5773 38.9218 15.966 40.0951 15.966ZM49.3972 11.324V11.39C49.3972 12.8713 49.7345 14.008 50.4092 14.8C51.0985 15.5773 52.0959 15.966 53.4012 15.966C54.7212 15.966 55.9312 15.5113 57.0312 14.602L57.5592 15.658C57.0752 16.1127 56.4592 16.4793 55.7112 16.758C54.9632 17.022 54.1932 17.154 53.4012 17.154C51.7292 17.154 50.4092 16.648 49.4412 15.636C48.4732 14.624 47.9892 13.2307 47.9892 11.456C47.9892 10.3267 48.2019 9.32933 48.6272 8.464C49.0672 7.584 49.6759 6.90933 50.4532 6.44C51.2305 5.956 52.1252 5.714 53.1372 5.714C54.5892 5.714 55.7185 6.18333 56.5252 7.122C57.3465 8.06067 57.7572 9.366 57.7572 11.038V11.324H49.3972ZM53.1372 6.814C52.1252 6.814 51.3039 7.122 50.6732 7.738C50.0425 8.33933 49.6465 9.19 49.4852 10.29H56.4812C56.3932 9.16067 56.0632 8.30267 55.4912 7.716C54.9192 7.11467 54.1345 6.814 53.1372 6.814ZM60.6385 0.807999H61.9585V17H60.6385V0.807999ZM69.3184 17.154C67.3824 17.154 65.857 16.6847 64.7424 15.746L65.4024 14.14C66.561 15.02 67.8884 15.46 69.3844 15.46C70.147 15.46 70.7264 15.3353 71.1224 15.086C71.5184 14.822 71.7164 14.4553 71.7164 13.986C71.7164 13.59 71.577 13.282 71.2984 13.062C71.0344 12.8273 70.5797 12.6293 69.9344 12.468L68.0864 12.028C67.1184 11.8227 66.3777 11.4633 65.8644 10.95C65.3657 10.422 65.1164 9.76933 65.1164 8.992C65.1164 7.99467 65.5124 7.188 66.3044 6.572C67.111 5.956 68.1744 5.648 69.4944 5.648C70.2864 5.648 71.0344 5.77267 71.7384 6.022C72.457 6.27133 73.0657 6.62333 73.5644 7.078L72.8824 8.64C71.8117 7.78933 70.6824 7.364 69.4944 7.364C68.7757 7.364 68.2184 7.50333 67.8224 7.782C67.4264 8.046 67.2284 8.42 67.2284 8.904C67.2284 9.28533 67.353 9.59333 67.6024 9.828C67.8517 10.0627 68.2477 10.246 68.7904 10.378L70.6824 10.84C71.7384 11.0747 72.5157 11.4487 73.0144 11.962C73.5277 12.4607 73.7844 13.1133 73.7844 13.92C73.7844 14.9173 73.381 15.7093 72.5744 16.296C71.7824 16.868 70.697 17.154 69.3184 17.154ZM86.5454 5.912V17H84.3454V15.108C84.0227 15.768 83.5387 16.274 82.8934 16.626C82.2627 16.978 81.5221 17.154 80.6714 17.154C79.6887 17.154 78.8234 16.9193 78.0754 16.45C77.3421 15.9807 76.7701 15.3207 76.3594 14.47C75.9487 13.6047 75.7434 12.6 75.7434 11.456C75.7434 10.312 75.9487 9.3 76.3594 8.42C76.7847 7.54 77.3714 6.858 78.1194 6.374C78.8674 5.89 79.7181 5.648 80.6714 5.648C81.5221 5.648 82.2627 5.83133 82.8934 6.198C83.5241 6.55 84.0081 7.056 84.3454 7.716V5.912H86.5454ZM81.1994 15.394C82.1967 15.394 82.9667 15.0493 83.5094 14.36C84.0667 13.656 84.3454 12.6733 84.3454 11.412C84.3454 10.136 84.0667 9.15333 83.5094 8.464C82.9667 7.77467 82.1894 7.43 81.1774 7.43C80.1801 7.43 79.3954 7.78933 78.8234 8.508C78.2661 9.212 77.9874 10.1947 77.9874 11.456C77.9874 12.7027 78.2661 13.6707 78.8234 14.36C79.3954 15.0493 80.1874 15.394 81.1994 15.394ZM95.7056 5.648C98.3603 5.648 99.6876 7.12933 99.6876 10.092V17H97.4656V10.224C97.4656 9.256 97.275 8.552 96.8936 8.112C96.527 7.672 95.933 7.452 95.1116 7.452C94.173 7.452 93.4176 7.74533 92.8456 8.332C92.2883 8.91867 92.0096 9.70333 92.0096 10.686V17H89.8096V9.036C89.8096 7.87733 89.751 6.836 89.6336 5.912H91.7016L91.8996 7.826C92.2516 7.122 92.7576 6.58667 93.4176 6.22C94.0923 5.83867 94.855 5.648 95.7056 5.648ZM105.733 7.628V13.194C105.733 13.9567 105.894 14.4993 106.217 14.822C106.554 15.13 107.016 15.284 107.603 15.284C107.984 15.284 108.373 15.2253 108.769 15.108V16.912C108.285 17.0733 107.735 17.154 107.119 17.154C105.975 17.154 105.087 16.8313 104.457 16.186C103.826 15.5407 103.511 14.602 103.511 13.37V7.628H101.355V5.912H103.511V3.14L105.733 2.37V5.912H108.791V7.628H105.733ZM110.843 5.912H113.043V17H110.843V5.912ZM113.219 1.072V3.404H110.645V1.072H113.219ZM116.3 0.807999H118.5V17H116.3V0.807999ZM121.757 5.912H123.957V17H121.757V5.912ZM124.133 1.072V3.404H121.559V1.072H124.133ZM131.988 17.154C130.903 17.154 129.949 16.9193 129.128 16.45C128.307 15.9807 127.669 15.3133 127.214 14.448C126.774 13.5827 126.554 12.5707 126.554 11.412C126.554 10.2533 126.774 9.24133 127.214 8.376C127.669 7.496 128.307 6.82133 129.128 6.352C129.949 5.88267 130.903 5.648 131.988 5.648C133.059 5.648 134.005 5.88267 134.826 6.352C135.647 6.82133 136.278 7.496 136.718 8.376C137.173 9.24133 137.4 10.2533 137.4 11.412C137.4 12.5707 137.173 13.5827 136.718 14.448C136.278 15.3133 135.647 15.9807 134.826 16.45C134.005 16.9193 133.059 17.154 131.988 17.154ZM131.966 15.394C132.993 15.394 133.777 15.0567 134.32 14.382C134.863 13.7073 135.134 12.7173 135.134 11.412C135.134 10.136 134.855 9.15333 134.298 8.464C133.755 7.77467 132.985 7.43 131.988 7.43C130.976 7.43 130.191 7.77467 129.634 8.464C129.077 9.15333 128.798 10.136 128.798 11.412C128.798 12.7173 129.069 13.7073 129.612 14.382C130.169 15.0567 130.954 15.394 131.966 15.394Z" fill="black"/>
</svg>
